<?xml version="1.0" encoding="UTF-8" ?>
<!DOCTYPE svg PUBLIC "-//W3C//DTD SVG 1.1//EN" "http://www.w3.org/Graphics/SVG/1.1/DTD/svg11.dtd">
<svg width="48pt" height="48pt" viewBox="0 0 48 48" version="1.1" xmlns="http://www.w3.org/2000/svg">
<g id="#ffffffff">
<path fill="#ffffff" opacity="1.00" d=" M 0.00 0.00 L 48.00 0.00 L 48.00 48.00 L 0.00 48.00 L 0.00 0.00 M 15.28 11.57 C 15.43 20.10 15.39 28.64 15.31 37.18 C 16.70 37.19 18.10 37.21 19.49 37.23 C 19.49 34.39 19.49 31.56 19.42 28.72 C 20.27 27.77 21.12 26.81 21.96 25.85 C 24.11 29.69 26.36 33.48 28.69 37.21 C 30.60 37.20 32.50 37.20 34.41 37.22 C 31.04 32.29 28.06 27.11 24.91 22.04 C 27.90 18.56 30.78 14.99 33.83 11.56 C 31.93 11.56 30.02 11.57 28.12 11.59 C 25.16 15.03 22.61 18.81 19.52 22.15 C 19.43 18.61 19.48 15.07 19.53 11.53 C 18.12 11.54 16.70 11.56 15.28 11.57 Z" />
</g>
<g id="#233870ff">
<path fill="#233870" opacity="1.00" d=" M 15.28 11.57 C 16.70 11.56 18.12 11.54 19.53 11.53 C 19.48 15.07 19.43 18.61 19.52 22.15 C 22.61 18.81 25.16 15.03 28.12 11.59 C 30.02 11.57 31.93 11.56 33.83 11.56 C 30.78 14.99 27.90 18.56 24.91 22.04 C 28.06 27.11 31.04 32.29 34.41 37.22 C 32.50 37.20 30.60 37.20 28.69 37.21 C 26.36 33.48 24.11 29.69 21.96 25.85 C 21.12 26.81 20.27 27.77 19.42 28.72 C 19.49 31.56 19.49 34.39 19.49 37.23 C 18.10 37.21 16.70 37.19 15.31 37.18 C 15.39 28.64 15.43 20.10 15.28 11.57 Z" />
</g>
</svg>
